# xmcd
#
# Track frame offsets: 
#        150
#        32362
#        47938
#        67756
#        111736
#        140164
#        182331
#
# Disc length: 3017 seconds
#
# Revision: 0
# Processed by: cddbd v1.5.2PL0 Copyright (c) Steve Scherf et al.
# Submitted via: ExactAudioCopy v0.99pb5
#
DISCID=5f0bc707
DTITLE=Haydn Beethoven Trio di Trieste  - Klaviertrio Erzherzog DG 192
DTITLE=20
DYEAR=1900
DGENRE=Classical
TTITLE0=A1-Haydn_Klaviertrio Nr. 4-1-Allegro moderato
TTITLE1=A2-Haydn_Klaviertrio Nr. 4-2-Allegretto
TTITLE2=A3-Haydn_Klaviertrio Nr. 4-3-Finale Allegro
TTITLE3=A4-Beethoven Klaviertrio Op. 97 Erzherzog-1-Allegro Moderato
TTITLE4=B1-Beethoven Klaviertrio Op.97-2.Scherzo Allegro
TTITLE5=B2-Beethoven Klaviertrio Op.97-3.Andante cantabile 
TTITLE6=B3-Beethoven Klaviertrio Op.97-4.Allegro moderato-Presto
EXTD=
EXTT0=
EXTT1=
EXTT2=
EXTT3=
EXTT4=
EXTT5=
EXTT6=
PLAYORDER=
